<?xml version="1.0" encoding="utf-8"?>
<!-- Generator: Adobe Illustrator 27.0.0, SVG Export Plug-In . SVG Version: 6.00 Build 0)  -->
<svg version="1.1" id="Layer_12" xmlns="http://www.w3.org/2000/svg" xmlns:xlink="http://www.w3.org/1999/xlink" x="0px" y="0px"
	 viewBox="0 0 1468.7 1185.2" style="enable-background:new 0 0 1468.7 1185.2;" xml:space="preserve">
<style type="text/css">
	.st0{fill:#FFFFFF;}
</style>
<path class="st0" d="M238.9,1185.1c-76.9,0-153.8-0.1-230.7,0.1c-6.4,0-8.2-1.6-8.2-8.1C0.2,1028-0.4,878.9,0.6,729.8
	c0.2-35.3,3.8-70.7,9.2-106c5.9-38.8,15.8-76.5,26.5-114c5.5-18.9,13.8-37,20.7-55.5c11-29.5,26.4-57,40.5-84.9
	c8.2-16.2,19.9-30.5,29.4-46c16.9-27.9,38.4-52.2,59.5-76.8c15.9-18.5,34.6-34.7,51.8-52.1c17.7-17.9,37.7-33.2,57.7-48.2
	c38.3-28.8,79.3-53.2,122.6-73.9c44.3-21.1,90.3-37,137.6-49.6c32.7-8.8,66.2-12.6,99.4-18.2C669,2.3,682.9,2,696.7,1.8
	c15.4-0.2,30.7-2.7,46-1.5c33.3,2.7,66.7,3.6,100,8.5c39.7,5.9,78.2,16,116.5,26.8c20,5.6,39.3,14.1,58.6,22.2
	c41.5,17.5,80.9,38.6,118.8,63.1c53.3,34.4,100.1,76.2,143.2,122.3c15.1,16.2,28.4,34.1,41.9,51.8c33.2,43.5,60.6,90.7,82.6,140.6
	c16,36.3,29.1,73.8,39.3,112.4c9.7,36.6,14.5,73.9,20.8,111c1.3,7.6,0.5,15.5,1.4,23.3c1.1,10.6,1.4,21.3,1.6,31.9
	c2.4,154.9,0.7,309.7,1.4,464.6c0,5.1-1.5,6.4-6.4,6.4c-155.3-0.1-310.7-0.1-466,0c-6.5,0-6.4-3.1-6.4-7.8
	c0.1-144.2,0.1-288.4,0-432.6c0-30.8-3.3-61.2-13.2-90.5c-10.5-31-26.1-59.2-47.3-84.4c-31.5-37.4-70.5-63.5-116.7-78.9
	c-31.8-10.6-64.7-14.5-98-11.7c-50,4.2-95.5,21.4-135.5,52c-37.2,28.5-64.3,64.6-81.7,108.3c-11.9,30-17,60.7-17.3,93
	c-1.5,148.4-0.7,296.8-1,445.2c0,6-1.6,7.4-7.5,7.4C394,1185,316.4,1185.1,238.9,1185.1L238.9,1185.1z"/>
</svg>
